<svg fill="none" height="32" viewBox="0 0 32 32" width="32" xmlns="http://www.w3.org/2000/svg"><g fill="#212121"><path d="m7.91608 7.77735c.26707-.4006 1.19381-1.27735 2.58402-1.27735 1.3901 0 2.3169.87675 2.5839 1.27735.1532.22976.4636.29185.6934.13868.2298-.15318.2919-.46362.1387-.69338-.3996-.5994-1.6062-1.72265-3.416-1.72265-1.80989 0-3.01647 1.12325-3.41607 1.72265-.15318.22976-.09109.5402.13867.69338.22977.15317.5402.09108.69338-.13868z"/><path d="m15.0001 19.75c-.8353 0-1.2292.3934-1.2929.4571-.3906.3905-1.0237.3905-1.4143 0-.3905-.3905-.3905-1.0237 0-1.4142.2697-.2696 1.1424-1.0429 2.7072-1.0429 2.3991 0 4.2343 1.4826 4.8944 2.8028.247.494.0467 1.0946-.4472 1.3416-.494.247-1.0947.0468-1.3417-.4472-.3399-.6798-1.5047-1.6972-3.1055-1.6972z"/><path d="m7 11.5c0-1.65726 1.34274-3 3-3 1.6573 0 3 1.34274 3 3 0 1.6573-1.3427 3-3 3-1.65726 0-3-1.3427-3-3z"/><path d="m17 11c0-1.65726 1.3427-3 3-3s3 1.34274 3 3c0 1.6573-1.3427 3-3 3s-3-1.3427-3-3z"/><path d="m15.9989 1c-4.9037 0-8.6859 1.65419-11.23548 4.42276-2.53716 2.75509-3.76342 6.51504-3.76342 10.57614s1.22626 7.821 3.76342 10.5761c2.54958 2.7686 6.33178 4.4228 11.23548 4.4228s8.6859-1.6542 11.2354-4.4228c2.5372-2.7551 3.7635-6.515 3.7635-10.5761s-1.2263-7.82105-3.7635-10.57614c-2.5495-2.76857-6.3317-4.42276-11.2354-4.42276zm-12.9989 14.9989c0-3.6703 1.10595-6.90979 3.23462-9.22131 2.11626-2.29803 5.33348-3.77759 9.76428-3.77759 1.3208 0 2.5337.13147 3.6418.3769-.0282.01054-.0562.02118-.0838.03189-.5711.22137-1.0536.48812-1.3341.67518-.2298.15318-.2919.46362-.1387.69338s.4636.29185.6934.13868c.2194-.14628.6369-.37952 1.1408-.57482.5065-.19632 1.0669-.34121 1.5818-.34121.0656 0 .1319.00235.1987.00685 1.6454.65793 2.9953 1.60991 4.0643 2.77074 2.1287 2.31152 3.2347 5.55101 3.2347 9.22131 0 2.8764-.6793 5.4883-1.9978 7.5962v-11.5951c0-3.31371-2.6863-6-6-6s-6 2.68629-6 6c0 3.3137 2.6863 6 6 6 2.087 0 3.9251-1.0655 5-2.6822v9.6365c-.0775.0899-.1564.1786-.2369.2659-2.1162 2.298-5.3335 3.7776-9.7642 3.7776-4.4308 0-7.64802-1.4796-9.76428-3.7776-2.12867-2.3115-3.23462-5.5511-3.23462-9.2213zm23-3.9989v.0044c-.0024 2.7594-2.24 4.9956-5 4.9956-2.7614 0-5-2.2386-5-5 0-2.76142 2.2386-5 5-5s5 2.23858 5 5z"/></g></svg>