<svg fill="none" height="32" viewBox="0 0 32 32" width="32" xmlns="http://www.w3.org/2000/svg"><g fill="#212121"><path d="m21.6816 4c-1.6082-.64025-3.4979-1-5.6827-1s-4.0746.35975-5.6828 1h-4.00661c2.44591-1.9028 5.69571-3 9.68941-3s7.2435 1.0972 9.6894 3z"/><path d="m3.00017 15.9192-.00017.0797c0 3.6702 1.10595 6.9098 3.23462 9.2213 2.11626 2.298 5.33348 3.7776 9.76428 3.7776 4.4307 0 7.648-1.4796 9.7642-3.7776 2.1287-2.3115 3.2347-5.5511 3.2347-9.2213l-.0002-.0779c.7529-.6023 1.3854-1.3318 1.8728-2.1487.0851.7288.1274 1.4725.1274 2.2266 0 4.0611-1.2263 7.821-3.7635 10.5761-2.5495 2.7686-6.3317 4.4228-11.2354 4.4228s-8.6859-1.6542-11.23548-4.4228c-2.53716-2.7551-3.76342-6.515-3.76342-10.5761 0-.7552.0424-1.4999.12775-2.2298.4871.8174 1.1195 1.5474 1.87242 2.1501z"/><path d="m11.8141 18.4193c-.3174-.4452-.9349-.5533-1.385-.2403-.45347.3153-.56546.9385-.2501 1.3919l.0014.0021.0016.0022.0035.005.0088.0123c.0066.0091.0147.0201.0243.0328.0193.0255.0447.0581.0765.0967.0637.0772.1531.1788.2701.2963.234.2349.5795.5344 1.0508.8294.9504.5949 2.3831 1.1523 4.384 1.1523 2.0008 0 3.4335-.5574 4.384-1.1523.4713-.295.8167-.5945 1.0507-.8294.1171-.1175.2065-.2191.2701-.2963.0318-.0386.0573-.0712.0766-.0967l.0127-.0171.0116-.0157.0088-.0123.0035-.005.0016-.0022.0014-.0021c.3152-.4534.2033-1.0766-.2501-1.3919-.4502-.313-1.0676-.2049-1.385.2403-.0029.0038-.0111.0145-.0244.0306-.0265.0322-.0739.0869-.1437.1569-.1395.1401-.3673.3406-.6949.5456-.6472.4051-1.7145.8476-3.3229.8476s-2.6757-.4425-3.3229-.8476c-.3276-.205-.5554-.4055-.695-.5456-.0697-.07-.1171-.1247-.1437-.1569-.0132-.0161-.0215-.0268-.0243-.0306z"/><path d="m11 5h-6c-2.20914 0-4 1.79086-4 4v.67376c0 2.65144 1.49802 5.07524 3.8695 6.26104l.93584.4679c1.40195.7009 3.04379.794 4.51986.2669 2.786-.995 4.6748-3.6443 4.6748-6.6026v-.067c0-.55228.4477-1 1-1s1 .44772 1 1v.067c0 2.9583 1.8888 5.6076 4.6748 6.6026 1.4761.5271 3.1179.434 4.5199-.2669l.9358-.4679c2.3715-1.1858 3.8695-3.6096 3.8695-6.26104v-1.17376c0-1.933-1.567-3.5-3.5-3.5h-7c-1.1241 0-2.1244.52992-2.7648 1.35357v-.0028c-.0146.01461-.0312.03164-.0497.05057-.1919.19626-.5824.59556-.946.59866h-1.7438c-.3636-.0031-.7539-.40229-.9458-.59855-.0186-.01896-.0353-.03605-.0499-.05068v.00341c-.7329-.83042-1.8053-1.35418-3-1.35418zm1.3891 5.2678c-.5858.5858-1.6938.4275-2.47489-.35359-.78104-.78104-.93934-1.88908-.35355-2.47487.58574-.58579 1.69384-.4275 2.47484.35355.7811.78105.9394 1.88909.3536 2.47491zm15.6464-2.47491c.7811.78105.9394 1.88909.3536 2.47491-.5858.5858-1.6938.4275-2.4749-.35359-.781-.78104-.9393-1.88908-.3535-2.47487.5857-.58579 1.6938-.4275 2.4748.35355z"/></g></svg>